<?xml version="1.0" standalone="no"?>
<!DOCTYPE svg PUBLIC "-//W3C//DTD SVG 20010904//EN"
 "http://www.w3.org/TR/2001/REC-SVG-20010904/DTD/svg10.dtd">
<svg version="1.0" xmlns="http://www.w3.org/2000/svg"
 width="1162.000000pt" height="1162.000000pt" viewBox="0 0 1162.000000 1162.000000"
 preserveAspectRatio="xMidYMid meet">
<metadata>
Created by potrace 1.14, written by Peter Selinger 2001-2017
</metadata>
<g transform="translate(0.000000,1162.000000) scale(0.100000,-0.100000)"
fill="#000000" stroke="none">
<path d="M2991 11606 c-48 -27 -50 -41 -51 -353 l0 -293 -290 0 c-186 0 -298
-4 -313 -11 -55 -25 -57 -37 -57 -409 0 -372 2 -384 57 -409 25 -12 396 -17
413 -6 6 3 10 3 10 -2 0 -4 41 -7 90 -5 l90 3 1 -558 c0 -307 0 -567 0 -578
-1 -18 0 -125 0 -165 1 -34 0 -786 0 -800 -1 -13 0 -119 0 -160 1 -34 0 -786
0 -800 -1 -13 0 -119 0 -160 1 -34 0 -786 0 -800 -1 -13 0 -119 0 -160 1 -34
0 -786 0 -800 -1 -13 0 -119 0 -160 1 -34 0 -786 0 -800 -1 -14 0 -129 0 -160
1 -30 1 -3345 0 -3360 0 -8 -1 -44 0 -80 0 -36 0 -72 0 -80 0 -8 0 -107 0
-219 0 -221 5 -247 56 -270 16 -7 141 -11 364 -11 370 0 383 2 408 57 8 17 11
599 10 1981 0 1076 0 1964 0 1972 0 17 1 128 0 150 0 8 0 47 0 85 0 39 0 77 0
85 0 8 0 42 0 75 1 33 1 67 0 75 0 8 0 47 0 85 0 39 0 77 0 85 0 8 0 42 0 75
1 33 1 67 0 75 0 8 0 47 0 85 0 39 0 77 0 85 0 8 0 42 0 75 1 33 0 69 0 80 0
11 0 607 0 1325 l1 1305 1183 1182 1182 1182 308 3 c169 2 307 1 307 -2 0 -6
424 -3 458 3 12 2 22 1 22 -2 0 -3 224 -6 497 -6 468 0 498 -1 497 -17 -1 -10
1 -18 5 -18 4 0 4 -24 1 -54 -3 -30 -2 -52 2 -50 4 3 4 -5 -1 -18 -5 -13 -5
-33 0 -45 5 -13 5 -23 1 -23 -5 0 -7 -15 -5 -32 4 -38 6 -99 3 -113 -1 -5 -1
-32 0 -60 0 -27 1 -56 0 -62 0 -7 0 -21 0 -30 0 -10 0 -34 -1 -53 0 -19 0 -41
0 -47 1 -17 1 -53 0 -108 0 -16 0 -39 1 -50 1 -11 1 -26 1 -32 -1 -7 -1 -21
-1 -30 0 -10 0 -34 -1 -53 0 -19 0 -41 0 -47 1 -17 1 -53 0 -108 0 -16 0 -39
1 -50 1 -11 1 -26 1 -32 -1 -7 -1 -21 -1 -30 0 -10 0 -34 -1 -53 0 -19 0 -41
0 -47 1 -17 1 -46 0 -108 0 -35 0 -47 2 -80 1 -25 2 -25 100 -25 l98 0 -1 29
c-1 15 1 32 4 37 3 5 2 18 -2 29 -4 11 -4 34 1 52 4 18 3 35 -2 38 -4 3 -4 16
0 28 5 12 5 32 0 45 -5 12 -5 22 0 22 5 0 5 17 1 38 -4 21 -4 47 0 58 4 10 4
28 0 39 -4 11 -4 34 1 52 4 18 3 35 -2 38 -4 3 -4 16 0 28 5 12 5 32 0 45 -5
12 -5 22 0 22 5 0 5 17 1 38 -4 21 -4 47 0 58 4 10 4 28 0 39 -4 11 -4 34 1
52 4 18 3 35 -2 38 -4 3 -4 16 0 28 5 12 5 32 0 45 -5 14 -5 22 2 22 6 0 8 4
5 9 -7 10 -8 72 -3 111 2 14 0 34 -4 45 -3 11 -3 32 2 48 5 16 4 25 -2 22 -5
-4 -6 3 0 17 4 13 5 32 1 43 -4 11 -4 29 -1 40 4 11 5 34 4 50 -3 27 -3 55 -2
95 0 8 0 20 -1 25 -1 6 -2 20 -1 32 l1 22 280 3 c154 2 280 1 280 -2 0 -3 62
-3 137 0 146 5 172 13 192 57 16 34 15 697 -1 726 -14 28 -29 41 -51 50 -10 4
-1251 7 -2758 7 l-2739 0 0 291 c0 316 -3 333 -57 358 -37 17 -701 14 -732 -3z
m1959 -1490 c0 -6 -1158 -1160 -1167 -1163 -4 -2 -7 260 -5 582 l2 585 585 0
c322 0 585 -2 585 -4z"/>
</g>
</svg>
